<svg id="Group_4613" data-name="Group 4613" xmlns="http://www.w3.org/2000/svg" xmlns:xlink="http://www.w3.org/1999/xlink" width="50.122" height="46.775" viewBox="0 0 50.122 46.775">
  <defs>
    <clipPath id="clip-path">
      <rect id="Rectangle_32067" data-name="Rectangle 32067" width="50.122" height="46.775" fill="#1471ce"/>
    </clipPath>
  </defs>
  <g id="Group_4612" data-name="Group 4612" clip-path="url(#clip-path)">
    <path id="Path_130740" data-name="Path 130740" d="M50.12,20.464q0,9.144,0,18.288c0,4.88-3.157,8.019-8.057,8.021q-17.034.005-34.068,0C3.174,46.771.006,43.607,0,38.792Q-.006,28.55,0,18.309c0-.174,0-.349,0-.522-.013-.553.177-1.015.78-1.026.672-.011.849.487.835,1.077-.007.278,0,.557,0,.836,0,6.9-.017,13.795.012,20.692A5.863,5.863,0,0,0,6.6,45.1a5.929,5.929,0,0,0,6.451-3.867,7.144,7.144,0,0,0,.336-2.468q-.007-18.55,0-37.1C13.382.08,13.459,0,15.021,0H48.462c1.577,0,1.657.08,1.657,1.652q0,9.405,0,18.811M12.155,45.158h1.294q14.364,0,28.728,0c3.887,0,6.324-2.436,6.326-6.319,0-12.013-.009-24.027.024-36.041,0-.957-.249-1.206-1.2-1.2q-15.565.052-31.13,0c-.929,0-1.222.2-1.219,1.188.037,11.561-.012,23.122.049,34.682.015,2.854-.323,5.484-2.867,7.693" transform="translate(0 0)" fill="#1471ce"/>
    <path id="Path_130741" data-name="Path 130741" d="M93.005,43.929V37.15h1.408l1.75,2.907A18.675,18.675,0,0,1,97.32,42.33h.02c-.08-.905-.111-1.781-.111-2.817V37.15h1.147v6.779H97.1l-1.77-2.977a23.638,23.638,0,0,1-1.217-2.344l-.03.01c.05.875.06,1.77.06,2.887v2.424Z" transform="translate(-73.561 -29.383)" fill="#1471ce"/>
    <path id="Path_130742" data-name="Path 130742" d="M130.288,40.922h-2.555v1.992h2.856v1.016H126.5V37.15h3.943v1.016h-2.706v1.75h2.555Z" transform="translate(-100.049 -29.383)" fill="#1471ce"/>
    <path id="Path_130743" data-name="Path 130743" d="M151.589,43.929l-1.66-6.779h1.318l.644,3.078c.171.825.332,1.69.443,2.364h.02c.111-.714.3-1.519.493-2.374l.734-3.068h1.3l.674,3.118c.171.8.312,1.559.412,2.293h.02c.121-.744.282-1.519.463-2.344l.7-3.068h1.257l-1.821,6.779H155.26l-.7-3.188a19.378,19.378,0,0,1-.372-2.153h-.02c-.121.724-.252,1.378-.453,2.153l-.785,3.188Z" transform="translate(-118.584 -29.383)" fill="#1471ce"/>
    <path id="Path_130744" data-name="Path 130744" d="M194.035,42.163a3.428,3.428,0,0,0,1.64.433c.795,0,1.237-.372,1.237-.925,0-.513-.342-.815-1.207-1.127-1.116-.4-1.831-1-1.831-1.972,0-1.106.925-1.951,2.394-1.951a3.585,3.585,0,0,1,1.629.342l-.3,1a2.868,2.868,0,0,0-1.348-.322c-.784,0-1.126.423-1.126.815,0,.523.392.764,1.3,1.116,1.177.443,1.75,1.036,1.75,2.012,0,1.086-.825,2.032-2.575,2.032a4.025,4.025,0,0,1-1.831-.423Z" transform="translate(-153.253 -28.965)" fill="#1471ce"/>
    <rect id="Rectangle_32062" data-name="Rectangle 32062" width="24.933" height="1.254" transform="translate(19.423 19.057)" fill="#1471ce"/>
    <rect id="Rectangle_32063" data-name="Rectangle 32063" width="24.933" height="1.254" transform="translate(19.423 24.285)" fill="#1471ce"/>
    <rect id="Rectangle_32064" data-name="Rectangle 32064" width="24.933" height="1.254" transform="translate(19.313 29.67)" fill="#1471ce"/>
    <rect id="Rectangle_32065" data-name="Rectangle 32065" width="24.933" height="1.254" transform="translate(19.313 34.898)" fill="#1471ce"/>
    <rect id="Rectangle_32066" data-name="Rectangle 32066" width="11.147" height="1.254" transform="translate(0.527 16.82)" fill="#1471ce"/>
  </g>
</svg>
